<svg xmlns="http://www.w3.org/2000/svg" width="64" height="64" fill="none"><g fill="#ACACAC" clip-path="url(#a)"><path d="m57.234-2.64819 1.41421356 1.41421356-67.882251 67.882251-1.41421355-1.41421357zM49.234-2.64819l1.41421356 1.41421356-67.882251 67.882251-1.41421355-1.41421357zM41.234-2.64819l1.41421356 1.41421356-67.882251 67.882251-1.41421355-1.41421357zM33.234-2.64819l1.41421356 1.41421356-67.882251 67.882251-1.41421355-1.41421357zM25.234-2.64819l1.41421356 1.41421356-67.882251 67.882251-1.41421355-1.41421357zM17.234-2.64819l1.41421356 1.41421356-67.882251 67.882251-1.41421355-1.41421357zM9.23402-2.64819l1.41421356 1.41421356-67.882251 67.882251-1.41421355-1.41421357zM1.23402-2.64819l1.41421356 1.41421356-67.882251 67.882251-1.41421355-1.41421357zM65.234-2.64819l1.41421356 1.41421356-67.882251 67.882251-1.41421355-1.41421357zM73.234-2.64819l1.41421356 1.41421356-67.882251 67.882251-1.41421355-1.41421357zM81.234-2.64819l1.41421356 1.41421356-67.882251 67.882251-1.41421355-1.41421357zM89.234-3.64819l1.41421356 1.41421356-67.882251 67.882251-1.41421355-1.41421357zM97.234-3.64819l1.41421356 1.41421356-67.882251 67.882251-1.41421355-1.41421357zM105.234-3.64819l1.41421356 1.41421356-67.882251 67.882251-1.41421355-1.41421357zM113.234-3.64819l1.41421356 1.41421356-67.882251 67.882251-1.41421355-1.41421357zM121.234-3.64819l1.41421356 1.41421356-67.882251 67.882251-1.41421355-1.41421357zM129.234-3.64819l1.41421356 1.41421356-67.882251 67.882251-1.41421355-1.41421357z"/></g><defs><clipPath id="a"><path fill="#fff" d="M0 0h64v64H0z"/></clipPath></defs></svg>