<svg xmlns="http://www.w3.org/2000/svg" width="29" height="39" fill="none"><path fill="#fff" stroke="#000" d="m16.8698 8.44563 3.701 3.70107L9.70548 23.012l-1.22617-1.2261c-1.36684-1.3669-1.36684-3.583 0-4.9498l8.39049-8.39047ZM15.8631 7.10753l8.1271-1.88125-1.8813 8.12712-6.2458-6.24587ZM12.2007 30.0938l-3.701-3.7011L19.5975 15.295l1.2262 1.2261c1.3668 1.3669 1.3668 3.583 0 4.9498l-8.623 8.6229ZM13.137 31.1836l-8.12715 1.8813 1.88125-8.1271 6.2459 6.2458Z"/><path fill="#fff" d="m11.2921 30.2916-2.99014-2.9901.95535-.9554 2.99009 2.9902-.9553.9553ZM19.8179 12.1899l-2.9961-2.99605.9438-.94385 2.9961 2.9961-.9438.9438Z"/></svg>