<svg xmlns="http://www.w3.org/2000/svg" width="30" height="30" fill="none"><mask id="a" fill="#fff"><path d="M30 15c0 8.2843-6.7157 15-15 15-8.28427 0-15-6.7157-15-15C0 6.71573 6.71573 0 15 0c8.2843 0 15 6.71573 15 15ZM4.5 15c0 5.799 4.70101 10.5 10.5 10.5 5.799 0 10.5-4.701 10.5-10.5 0-5.79899-4.701-10.5-10.5-10.5C9.20101 4.5 4.5 9.20101 4.5 15Z"/></mask><path fill="#fff" stroke="#000" stroke-width="2" d="M30 15c0 8.2843-6.7157 15-15 15-8.28427 0-15-6.7157-15-15C0 6.71573 6.71573 0 15 0c8.2843 0 15 6.71573 15 15ZM4.5 15c0 5.799 4.70101 10.5 10.5 10.5 5.799 0 10.5-4.701 10.5-10.5 0-5.79899-4.701-10.5-10.5-10.5C9.20101 4.5 4.5 9.20101 4.5 15Z" mask="url(#a)"/><mask id="b" fill="#fff"><path d="m20.5159 5.625 3.3146 3.31456L8.93955 23.8305l-3.31456-3.3146L20.5159 5.625Z"/></mask><path fill="#fff" d="m20.5159 5.625 3.3146 3.31456L8.93955 23.8305l-3.31456-3.3146L20.5159 5.625Z"/><path fill="#000" d="M23.1234 8.23246 8.23244 23.1234l1.41422 1.4142L24.5376 9.64667l-1.4142-1.41421ZM6.33209 21.2231 21.223 6.33211l-1.4142-1.41422L4.91788 19.8088l1.41421 1.4143Z" mask="url(#b)"/></svg>