<svg width="68" height="89" viewBox="0 0 68 89" fill="none" xmlns="http://www.w3.org/2000/svg">
<mask id="path-1-inside-1_62_131" fill="white">
<path fill-rule="evenodd" clip-rule="evenodd" d="M5.84916 45.9366C9.61429 47.0191 14.0728 43.2494 17.5364 36.7686H49.7982C53.2617 43.2494 57.7203 47.0191 61.4854 45.9366C67.0358 44.341 68.9774 32.8054 65.8222 20.1712C62.667 7.53699 55.6098 -1.41149 50.0594 0.184197C48.5218 0.626236 47.2612 1.83107 46.3092 3.61075H21.0254C20.0734 1.83107 18.8127 0.626236 17.2751 0.184197C11.7248 -1.41149 4.66753 7.53699 1.51234 20.1712C-1.64286 32.8054 0.298802 44.341 5.84916 45.9366Z"/>
</mask>
<path fill-rule="evenodd" clip-rule="evenodd" d="M5.84916 45.9366C9.61429 47.0191 14.0728 43.2494 17.5364 36.7686H49.7982C53.2617 43.2494 57.7203 47.0191 61.4854 45.9366C67.0358 44.341 68.9774 32.8054 65.8222 20.1712C62.667 7.53699 55.6098 -1.41149 50.0594 0.184197C48.5218 0.626236 47.2612 1.83107 46.3092 3.61075H21.0254C20.0734 1.83107 18.8127 0.626236 17.2751 0.184197C11.7248 -1.41149 4.66753 7.53699 1.51234 20.1712C-1.64286 32.8054 0.298802 44.341 5.84916 45.9366Z" fill="#22C55E"/>
<path d="M17.5364 36.7686V35.7686H16.9369L16.6544 36.2973L17.5364 36.7686ZM5.84916 45.9366L6.12546 44.9756L6.12546 44.9756L5.84916 45.9366ZM49.7982 36.7686L50.6802 36.2973L50.3976 35.7686H49.7982V36.7686ZM61.4854 45.9366L61.2091 44.9756L61.2091 44.9756L61.4854 45.9366ZM65.8222 20.1712L64.852 20.4135L64.852 20.4135L65.8222 20.1712ZM50.0594 0.184197L50.3357 1.14527L50.3357 1.14527L50.0594 0.184197ZM46.3092 3.61075V4.61075H46.9083L47.1909 4.08246L46.3092 3.61075ZM21.0254 3.61075L20.1437 4.08246L20.4263 4.61075H21.0254V3.61075ZM17.2751 0.184197L16.9988 1.14527L16.9988 1.14527L17.2751 0.184197ZM1.51234 20.1712L2.48254 20.4135L2.48254 20.4135L1.51234 20.1712ZM16.6544 36.2973C14.9618 39.4645 13.0589 41.9033 11.1805 43.4085C9.29371 44.9204 7.57111 45.3912 6.12546 44.9756L5.57286 46.8977C7.89234 47.5645 10.2816 46.6917 12.4312 44.9692C14.5892 43.24 16.6474 40.5536 18.4183 37.24L16.6544 36.2973ZM49.7982 35.7686H17.5364V37.7686H49.7982V35.7686ZM48.9163 37.24C50.6872 40.5536 52.7453 43.24 54.9034 44.9692C57.053 46.6917 59.4422 47.5645 61.7617 46.8977L61.2091 44.9756C59.7635 45.3912 58.0409 44.9204 56.154 43.4085C54.2757 41.9033 52.3728 39.4645 50.6802 36.2973L48.9163 37.24ZM61.7617 46.8977C63.4593 46.4097 64.8017 45.1816 65.8029 43.5335C66.802 41.8889 67.4986 39.771 67.9045 37.3593C68.7168 32.5334 68.3959 26.3495 66.7924 19.9289L64.852 20.4135C66.4038 26.6271 66.6896 32.528 65.9323 37.0274C65.5534 39.2783 64.9211 41.1331 64.0936 42.4951C63.2684 43.8535 62.2867 44.6658 61.2091 44.9756L61.7617 46.8977ZM66.7924 19.9289C65.1893 13.5095 62.5843 7.97553 59.6242 4.22224C58.1451 2.34677 56.5458 0.875877 54.8984 -0.0209847C53.2419 -0.922747 51.4872 -1.26678 49.7831 -0.776874L50.3357 1.14527C51.4068 0.837334 52.6156 1.01348 53.9421 1.73559C55.2775 2.4626 56.6804 3.71926 58.0538 5.46073C60.7988 8.9413 63.3 14.1987 64.852 20.4135L66.7924 19.9289ZM49.7831 -0.776874C47.901 -0.235774 46.4581 1.21236 45.4274 3.13904L47.1909 4.08246C48.0643 2.44979 49.1427 1.48825 50.3357 1.14527L49.7831 -0.776874ZM21.0254 4.61075H46.3092V2.61075H21.0254V4.61075ZM16.9988 1.14527C18.1918 1.48825 19.2702 2.44979 20.1437 4.08246L21.9072 3.13904C20.8765 1.21236 19.4336 -0.235774 17.5514 -0.776874L16.9988 1.14527ZM2.48254 20.4135C4.03459 14.1987 6.53578 8.9413 9.28075 5.46073C10.6542 3.71926 12.057 2.4626 13.3925 1.73559C14.7189 1.01348 15.9277 0.837334 16.9988 1.14527L17.5514 -0.776874C15.8474 -1.26678 14.0926 -0.922747 12.4362 -0.0209847C10.7888 0.875877 9.18945 2.34677 7.71036 4.22224C4.75031 7.97553 2.14528 13.5095 0.542133 19.9289L2.48254 20.4135ZM6.12546 44.9756C5.04785 44.6658 4.06621 43.8535 3.24092 42.4951C2.41351 41.1331 1.78118 39.2783 1.40229 37.0274C0.644964 32.528 0.930788 26.6271 2.48254 20.4135L0.542133 19.9289C-1.06131 26.3495 -1.38226 32.5334 -0.569963 37.3593C-0.164036 39.771 0.532539 41.8889 1.53163 43.5335C2.53284 45.1816 3.87529 46.4097 5.57286 46.8977L6.12546 44.9756Z" fill="black" mask="url(#path-1-inside-1_62_131)"/>
<path fill-rule="evenodd" clip-rule="evenodd" d="M16.7465 9.92653C15.6419 9.92653 14.7465 10.822 14.7465 11.9265V16.2423H10.4307C9.32614 16.2423 8.43071 17.1377 8.43071 18.2423V20.5581C8.43071 21.6627 9.32614 22.5581 10.4307 22.5581H14.7465V26.8739C14.7465 27.9785 15.6419 28.8739 16.7465 28.8739H19.0623C20.1669 28.8739 21.0623 27.9785 21.0623 26.8739V22.5581H25.3781C26.4826 22.5581 27.3781 21.6627 27.3781 20.5581V18.2423C27.3781 17.1378 26.4826 16.2423 25.3781 16.2423H21.0623V11.9265C21.0623 10.822 20.1669 9.92653 19.0623 9.92653H16.7465Z" fill="black" fill-opacity="0.75"/>
<circle cx="47.9044" cy="16.2423" r="3.15789" fill="black" fill-opacity="0.75"/>
<circle cx="54.22" cy="22.5581" r="3.15789" fill="black" fill-opacity="0.75"/>
<path d="M30.7211 74.367C30.4437 73.183 30.3371 72.2176 30.4011 71.471C30.4757 70.7136 30.7264 70.0736 31.1531 69.551C31.5797 69.0283 32.1931 68.511 32.9931 67.999C34.0917 67.295 34.8224 66.6976 35.1851 66.207C35.5477 65.7163 35.7291 65.1723 35.7291 64.575C35.7291 63.6256 35.3931 62.9163 34.7211 62.447C34.0491 61.967 33.1051 61.727 31.8891 61.727C31.0144 61.727 30.2251 61.8496 29.5211 62.095C28.8171 62.3403 28.1717 62.6816 27.5851 63.119L26.6571 60.191C27.0091 59.8816 27.4784 59.5936 28.0651 59.327C28.6517 59.0496 29.3291 58.831 30.0971 58.671C30.8651 58.5003 31.6917 58.415 32.5771 58.415C33.9424 58.415 35.1637 58.639 36.2411 59.087C37.3184 59.5243 38.1664 60.159 38.7851 60.991C39.4144 61.8123 39.7291 62.7936 39.7291 63.935C39.7291 64.5856 39.6117 65.199 39.3771 65.775C39.1531 66.3403 38.7637 66.9056 38.2091 67.471C37.6544 68.0363 36.8971 68.639 35.9371 69.279C35.2544 69.727 34.7531 70.159 34.4331 70.575C34.1131 70.9803 33.9317 71.4763 33.8891 72.063C33.8464 72.639 33.8997 73.407 34.0491 74.367H30.7211ZM32.5291 81.775C31.8464 81.775 31.2597 81.5563 30.7691 81.119C30.2784 80.6816 30.0331 80.111 30.0331 79.407C30.0331 78.927 30.1451 78.511 30.3691 78.159C30.5931 77.7963 30.8917 77.519 31.2651 77.327C31.6491 77.1243 32.0704 77.023 32.5291 77.023C33.2224 77.023 33.8144 77.2416 34.3051 77.679C34.7957 78.1056 35.0411 78.6816 35.0411 79.407C35.0411 79.8763 34.9237 80.2923 34.6891 80.655C34.4651 81.007 34.1611 81.279 33.7771 81.471C33.4037 81.6736 32.9877 81.775 32.5291 81.775Z" fill="black"/>
</svg>
