<svg width="173" height="258" viewBox="0 0 173 258" fill="none" xmlns="http://www.w3.org/2000/svg">
<rect x="3" y="3" width="167" height="252" rx="25" fill="black" stroke="white" stroke-width="6"/>
<rect x="32" y="46" width="109" height="165" rx="54.5" fill="white"/>
<ellipse cx="87.2889" cy="128.501" rx="41.2889" ry="56.5006" fill="black"/>
<mask id="mask0_31_31" style="mask-type:alpha" maskUnits="userSpaceOnUse" x="49" y="76" width="76" height="105">
<ellipse cx="87.2889" cy="128.5" rx="37.5354" ry="52.1544" fill="#D9D9D9"/>
</mask>
<g mask="url(#mask0_31_31)">
<rect x="49.7536" y="76.3461" width="37.5353" height="52.1543" fill="#EF4444"/>
<rect x="87.2893" y="76.3461" width="37.5353" height="52.1543" fill="#2563EB"/>
<rect x="49.7536" y="128.501" width="37.5353" height="52.1543" fill="#22C55E"/>
<rect x="87.2893" y="128.501" width="37.5353" height="52.1543" fill="#FACC15"/>
</g>
<ellipse cx="24.4048" cy="27.5013" rx="8.40478" ry="11.5013" fill="#888888" fill-opacity="0.85"/>
<mask id="mask1_31_31" style="mask-type:alpha" maskUnits="userSpaceOnUse" x="16" y="16" width="17" height="23">
<ellipse cx="24.4048" cy="27.5012" rx="7.64071" ry="10.6166" fill="#D9D9D9"/>
</mask>
<g mask="url(#mask1_31_31)">
<rect x="16.7641" y="16.8846" width="7.64025" height="10.6159" fill="#EF4444"/>
<rect x="24.4049" y="16.8846" width="7.64025" height="10.6159" fill="#2563EB"/>
<rect x="16.7641" y="27.5015" width="7.64025" height="10.6159" fill="#22C55E"/>
<rect x="24.4049" y="27.5015" width="7.64025" height="10.6159" fill="#FACC15"/>
</g>
<ellipse cx="148.405" cy="230.501" rx="8.40478" ry="11.5013" fill="#888888" fill-opacity="0.85"/>
<mask id="mask2_31_31" style="mask-type:alpha" maskUnits="userSpaceOnUse" x="140" y="219" width="17" height="23">
<ellipse cx="148.405" cy="230.501" rx="7.64071" ry="10.6166" fill="#D9D9D9"/>
</mask>
<g mask="url(#mask2_31_31)">
<rect x="140.764" y="219.885" width="7.64025" height="10.6159" fill="#EF4444"/>
<rect x="148.405" y="219.885" width="7.64025" height="10.6159" fill="#2563EB"/>
<rect x="140.764" y="230.501" width="7.64025" height="10.6159" fill="#22C55E"/>
<rect x="148.405" y="230.501" width="7.64025" height="10.6159" fill="#FACC15"/>
</g>
</svg>
