<svg width="191" height="31" viewBox="0 0 191 31" fill="none" xmlns="http://www.w3.org/2000/svg">
<path d="M106.247 23V6.2H108.935V20.528H116.255V23H106.247ZM124.365 23.36C123.125 23.36 122.017 23.076 121.041 22.508C120.073 21.932 119.313 21.168 118.761 20.216C118.209 19.256 117.933 18.204 117.933 17.06C117.933 16.212 118.089 15.412 118.401 14.66C118.721 13.9 119.169 13.228 119.745 12.644C120.329 12.06 121.013 11.6 121.797 11.264C122.581 10.928 123.441 10.76 124.377 10.76C125.617 10.76 126.721 11.048 127.689 11.624C128.665 12.192 129.429 12.956 129.981 13.916C130.533 14.868 130.809 15.916 130.809 17.06C130.809 17.9 130.649 18.7 130.329 19.46C130.017 20.22 129.573 20.892 128.997 21.476C128.421 22.06 127.741 22.52 126.957 22.856C126.173 23.192 125.309 23.36 124.365 23.36ZM124.365 21.02C125.101 21.02 125.753 20.86 126.321 20.54C126.897 20.212 127.349 19.752 127.677 19.16C128.005 18.568 128.169 17.868 128.169 17.06C128.169 16.252 128.005 15.552 127.677 14.96C127.349 14.36 126.897 13.9 126.321 13.58C125.753 13.26 125.101 13.1 124.365 13.1C123.629 13.1 122.973 13.26 122.397 13.58C121.829 13.9 121.381 14.36 121.053 14.96C120.733 15.552 120.573 16.252 120.573 17.06C120.573 17.868 120.737 18.568 121.065 19.16C121.393 19.752 121.841 20.212 122.409 20.54C122.985 20.86 123.637 21.02 124.365 21.02ZM138.045 23.36C136.981 23.36 136.101 23.148 135.405 22.724C134.717 22.292 134.201 21.724 133.857 21.02C133.513 20.316 133.341 19.548 133.341 18.716V11.12H135.981V18.224C135.981 19.04 136.221 19.696 136.701 20.192C137.189 20.68 137.861 20.924 138.717 20.924C139.277 20.924 139.777 20.8 140.217 20.552C140.657 20.296 141.005 19.94 141.261 19.484C141.525 19.028 141.657 18.5 141.657 17.9V11.12H144.297V23H141.921V21.596C141.457 22.156 140.905 22.592 140.265 22.904C139.633 23.208 138.893 23.36 138.045 23.36ZM147.969 23V11.12H150.609V12.632C151.105 11.968 151.681 11.492 152.337 11.204C152.993 10.908 153.673 10.76 154.377 10.76C155.465 10.76 156.365 10.976 157.077 11.408C157.789 11.84 158.317 12.396 158.661 13.076C159.013 13.756 159.189 14.456 159.189 15.176V23H156.549V15.992C156.549 15.144 156.293 14.464 155.781 13.952C155.277 13.44 154.573 13.184 153.669 13.184C153.077 13.184 152.549 13.316 152.085 13.58C151.629 13.844 151.269 14.212 151.005 14.684C150.741 15.148 150.609 15.692 150.609 16.316V23H147.969ZM167.414 28.4C166.526 28.4 165.726 28.32 165.014 28.16C164.302 28.008 163.694 27.784 163.19 27.488C162.694 27.192 162.314 26.836 162.05 26.42C161.786 26.004 161.654 25.54 161.654 25.028C161.654 24.62 161.762 24.236 161.978 23.876C162.202 23.516 162.53 23.208 162.962 22.952C163.402 22.688 163.938 22.492 164.57 22.364C164.098 22.124 163.746 21.852 163.514 21.548C163.29 21.244 163.178 20.896 163.178 20.504C163.178 20.168 163.274 19.852 163.466 19.556C163.666 19.252 163.946 18.984 164.306 18.752C164.674 18.512 165.106 18.316 165.602 18.164C166.098 18.012 166.646 17.924 167.246 17.9L167.822 19.052C167.326 19.044 166.902 19.084 166.55 19.172C166.206 19.252 165.938 19.368 165.746 19.52C165.562 19.664 165.47 19.84 165.47 20.048C165.47 20.32 165.626 20.52 165.938 20.648C166.25 20.768 166.69 20.852 167.258 20.9L169.298 21.056C170.298 21.136 171.15 21.3 171.854 21.548C172.566 21.796 173.11 22.144 173.486 22.592C173.87 23.04 174.062 23.608 174.062 24.296C174.062 24.88 173.902 25.42 173.582 25.916C173.27 26.42 172.818 26.856 172.226 27.224C171.642 27.592 170.942 27.88 170.126 28.088C169.31 28.296 168.406 28.4 167.414 28.4ZM167.678 26.576C168.87 26.576 169.806 26.396 170.486 26.036C171.174 25.684 171.518 25.224 171.518 24.656C171.518 24.224 171.29 23.888 170.834 23.648C170.378 23.408 169.682 23.256 168.746 23.192L166.562 23.024C166.05 23.064 165.606 23.16 165.23 23.312C164.862 23.464 164.582 23.66 164.39 23.9C164.198 24.14 164.102 24.412 164.102 24.716C164.102 25.084 164.246 25.408 164.534 25.688C164.822 25.968 165.234 26.184 165.77 26.336C166.306 26.496 166.942 26.576 167.678 26.576ZM167.594 19.232C166.602 19.232 165.71 19.044 164.918 18.668C164.134 18.292 163.514 17.784 163.058 17.144C162.602 16.504 162.374 15.788 162.374 14.996C162.374 14.204 162.602 13.488 163.058 12.848C163.522 12.208 164.146 11.7 164.93 11.324C165.722 10.948 166.61 10.76 167.594 10.76C168.578 10.76 169.462 10.948 170.246 11.324C171.03 11.7 171.65 12.208 172.106 12.848C172.57 13.488 172.802 14.204 172.802 14.996C172.802 15.78 172.574 16.492 172.118 17.132C171.662 17.772 171.042 18.284 170.258 18.668C169.474 19.044 168.586 19.232 167.594 19.232ZM167.594 17.252C168.138 17.252 168.622 17.16 169.046 16.976C169.47 16.784 169.802 16.52 170.042 16.184C170.282 15.84 170.402 15.444 170.402 14.996C170.402 14.324 170.138 13.78 169.61 13.364C169.09 12.94 168.418 12.728 167.594 12.728C167.042 12.728 166.554 12.824 166.13 13.016C165.714 13.208 165.386 13.476 165.146 13.82C164.906 14.156 164.786 14.548 164.786 14.996C164.786 15.66 165.046 16.204 165.566 16.628C166.094 17.044 166.77 17.252 167.594 17.252ZM169.442 13.208L168.458 11.372L174.83 11.12L174.806 13.304L169.442 13.208ZM182.526 23.36C181.246 23.36 180.122 23.1 179.154 22.58C178.186 22.052 177.43 21.316 176.886 20.372C176.35 19.428 176.082 18.332 176.082 17.084C176.082 16.172 176.238 15.332 176.55 14.564C176.862 13.788 177.302 13.116 177.87 12.548C178.438 11.98 179.102 11.54 179.862 11.228C180.63 10.916 181.466 10.76 182.37 10.76C183.354 10.76 184.23 10.936 184.998 11.288C185.766 11.632 186.402 12.116 186.906 12.74C187.418 13.364 187.778 14.096 187.986 14.936C188.202 15.768 188.238 16.672 188.094 17.648H178.614C178.598 18.36 178.754 18.984 179.082 19.52C179.41 20.048 179.878 20.46 180.486 20.756C181.102 21.052 181.826 21.2 182.658 21.2C183.33 21.2 183.978 21.1 184.602 20.9C185.234 20.692 185.806 20.388 186.318 19.988L187.338 21.884C186.954 22.196 186.49 22.464 185.946 22.688C185.402 22.904 184.834 23.068 184.242 23.18C183.65 23.3 183.078 23.36 182.526 23.36ZM178.77 15.704H185.502C185.478 14.808 185.19 14.104 184.638 13.592C184.094 13.08 183.318 12.824 182.31 12.824C181.334 12.824 180.522 13.08 179.874 13.592C179.234 14.104 178.866 14.808 178.77 15.704Z" fill="#16A34A"/>
<path d="M57.184 23V6.2H63.268C64.46 6.2 65.512 6.408 66.424 6.824C67.344 7.232 68.064 7.824 68.584 8.6C69.104 9.368 69.364 10.292 69.364 11.372C69.364 12.484 69.124 13.424 68.644 14.192C68.164 14.952 67.464 15.532 66.544 15.932C65.632 16.324 64.52 16.52 63.208 16.52H59.872V23H57.184ZM59.872 14.216H63.244C64.332 14.216 65.176 13.988 65.776 13.532C66.376 13.068 66.676 12.368 66.676 11.432C66.676 10.504 66.368 9.792 65.752 9.296C65.136 8.8 64.308 8.552 63.268 8.552H59.872V14.216ZM72.0469 23V5.72H74.6869V23H72.0469ZM81.6516 23.36C80.8276 23.36 80.1036 23.208 79.4796 22.904C78.8556 22.592 78.3676 22.156 78.0156 21.596C77.6716 21.028 77.4996 20.36 77.4996 19.592C77.4996 18.944 77.6636 18.36 77.9916 17.84C78.3196 17.312 78.8276 16.876 79.5156 16.532C80.2116 16.188 81.1036 15.96 82.1916 15.848C83.2796 15.728 84.5876 15.744 86.1156 15.896L86.1636 17.72C85.0756 17.568 84.1396 17.504 83.3556 17.528C82.5716 17.552 81.9276 17.652 81.4236 17.828C80.9276 17.996 80.5596 18.224 80.3196 18.512C80.0876 18.792 79.9716 19.116 79.9716 19.484C79.9716 20.06 80.1756 20.504 80.5836 20.816C80.9996 21.128 81.5676 21.284 82.2876 21.284C82.9036 21.284 83.4556 21.172 83.9436 20.948C84.4316 20.724 84.8156 20.408 85.0956 20C85.3836 19.592 85.5276 19.112 85.5276 18.56V15.404C85.5276 14.876 85.4156 14.42 85.1916 14.036C84.9676 13.644 84.6276 13.34 84.1716 13.124C83.7156 12.908 83.1476 12.8 82.4676 12.8C81.8436 12.8 81.2276 12.896 80.6196 13.088C80.0116 13.272 79.4316 13.564 78.8796 13.964L78.1356 12.02C78.8796 11.516 79.6556 11.16 80.4636 10.952C81.2716 10.744 82.0476 10.64 82.7916 10.64C83.8956 10.64 84.8396 10.816 85.6236 11.168C86.4156 11.512 87.0236 12.036 87.4476 12.74C87.8716 13.436 88.0836 14.316 88.0836 15.38V23H85.7076V21.596C85.3076 22.164 84.7516 22.6 84.0396 22.904C83.3276 23.208 82.5316 23.36 81.6516 23.36ZM92.3794 28.376C91.9474 28.376 91.5234 28.328 91.1074 28.232C90.6914 28.136 90.2834 27.972 89.8834 27.74L90.4834 25.484C90.7314 25.644 91.0034 25.764 91.2994 25.844C91.5954 25.924 91.8594 25.964 92.0914 25.964C92.6514 25.964 93.0914 25.832 93.4114 25.568C93.7314 25.304 93.9834 24.896 94.1674 24.344L94.5634 23.192L89.8834 11.12H92.7754L96.0634 20.336L99.2674 11.12H102.063L96.9274 24.716C96.5594 25.668 96.1474 26.408 95.6914 26.936C95.2354 27.472 94.7314 27.844 94.1794 28.052C93.6274 28.268 93.0274 28.376 92.3794 28.376Z" fill="black"/>
<mask id="path-3-inside-1_46_102" fill="white">
<path fill-rule="evenodd" clip-rule="evenodd" d="M4.36487 30.8063C6.75009 31.4921 9.5747 29.1032 11.7685 24.9967C11.8454 24.9988 11.9226 24.9999 12 24.9999H32C32.0662 24.9999 32.1323 24.9991 32.1981 24.9975C34.3919 29.1035 37.2163 31.492 39.6013 30.8063C43.1165 29.7957 44.3462 22.4899 42.348 14.4882C40.3497 6.48656 35.8801 0.819193 32.3648 1.82979C31.3911 2.10975 30.5926 2.87281 29.9897 3.99994H14L13.9765 3.99997C13.3735 2.87283 12.5751 2.10975 11.6013 1.82979C8.0861 0.819193 3.6165 6.48656 1.61821 14.4882C-0.380079 22.4899 0.849641 29.7957 4.36487 30.8063Z"/>
</mask>
<path fill-rule="evenodd" clip-rule="evenodd" d="M4.36487 30.8063C6.75009 31.4921 9.5747 29.1032 11.7685 24.9967C11.8454 24.9988 11.9226 24.9999 12 24.9999H32C32.0662 24.9999 32.1323 24.9991 32.1981 24.9975C34.3919 29.1035 37.2163 31.492 39.6013 30.8063C43.1165 29.7957 44.3462 22.4899 42.348 14.4882C40.3497 6.48656 35.8801 0.819193 32.3648 1.82979C31.3911 2.10975 30.5926 2.87281 29.9897 3.99994H14L13.9765 3.99997C13.3735 2.87283 12.5751 2.10975 11.6013 1.82979C8.0861 0.819193 3.6165 6.48656 1.61821 14.4882C-0.380079 22.4899 0.849641 29.7957 4.36487 30.8063Z" fill="#22C55E"/>
<path d="M11.7685 24.9967L11.7969 23.9971L11.1782 23.9795L10.8865 24.5255L11.7685 24.9967ZM4.36487 30.8063L4.08857 31.7674L4.08857 31.7674L4.36487 30.8063ZM32.1981 24.9975L33.0801 24.5263L32.7898 23.9829L32.1738 23.9978L32.1981 24.9975ZM39.6013 30.8063L39.8776 31.7674L39.8776 31.7674L39.6013 30.8063ZM42.348 14.4882L43.3182 14.2459L43.3182 14.2459L42.348 14.4882ZM32.3648 1.82979L32.0885 0.868722L32.0885 0.868722L32.3648 1.82979ZM29.9897 3.99994V4.99994H30.5888L30.8714 4.47165L29.9897 3.99994ZM14 3.99994L14 2.99994L13.9987 2.99994L14 3.99994ZM13.9765 3.99997L13.0948 4.47167L13.3778 5.00074L13.9778 4.99997L13.9765 3.99997ZM11.6013 1.82979L11.8776 0.868722L11.8776 0.868722L11.6013 1.82979ZM1.61821 14.4882L2.58842 14.7305L1.61821 14.4882ZM10.8865 24.5255C9.82872 26.5055 8.65173 28.0056 7.51303 28.9183C6.36584 29.8379 5.39675 30.0625 4.64117 29.8453L4.08857 31.7674C5.71821 32.2359 7.35403 31.609 8.76391 30.4789C10.1823 29.342 11.5145 27.5944 12.6505 25.4679L10.8865 24.5255ZM12 23.9999C11.932 23.9999 11.8643 23.999 11.7969 23.9971L11.7401 25.9963C11.8265 25.9987 11.9131 25.9999 12 25.9999V23.9999ZM32 23.9999H12V25.9999H32V23.9999ZM32.1738 23.9978C32.1161 23.9992 32.0581 23.9999 32 23.9999V25.9999C32.0743 25.9999 32.1485 25.999 32.2224 25.9972L32.1738 23.9978ZM31.3161 25.4688C32.4521 27.595 33.7843 29.3424 35.2026 30.4791C36.6124 31.6091 38.2481 32.2359 39.8776 31.7674L39.325 29.8453C38.5695 30.0625 37.6005 29.8379 36.4534 28.9185C35.3148 28.0059 34.1379 26.506 33.0801 24.5263L31.3161 25.4688ZM39.8776 31.7674C41.0664 31.4256 41.9828 30.5716 42.6491 29.4747C43.3133 28.3814 43.7663 26.9917 44.0283 25.4349C44.5529 22.3186 44.3432 18.3502 43.3182 14.2459L41.3778 14.7305C42.3511 18.6278 42.5256 22.3132 42.0561 25.1029C41.8211 26.4991 41.4324 27.6255 40.9398 28.4363C40.4494 29.2436 39.8938 29.6817 39.325 29.8453L39.8776 31.7674ZM43.3182 14.2459C42.2935 10.1428 40.6246 6.58725 38.7104 4.16016C37.7543 2.9478 36.7054 1.97696 35.6048 1.37781C34.4952 0.773754 33.2838 0.525085 32.0885 0.868722L32.6411 2.79086C33.2035 2.6292 33.869 2.70998 34.6485 3.13438C35.4371 3.56368 36.2896 4.32029 37.1401 5.39866C38.8391 7.55302 40.4042 10.832 41.3778 14.7305L43.3182 14.2459ZM32.0885 0.868722C30.7702 1.24774 29.7895 2.2541 29.1079 3.52823L30.8714 4.47165C31.3958 3.49153 32.0119 2.97176 32.6411 2.79086L32.0885 0.868722ZM14 4.99994H29.9897V2.99994H14V4.99994ZM13.9778 4.99997L14.0013 4.99994L13.9987 2.99994L13.9752 2.99997L13.9778 4.99997ZM11.325 2.79086C11.9543 2.97176 12.5704 3.49154 13.0948 4.47167L14.8583 3.52827C14.1766 2.25411 13.196 1.24774 11.8776 0.868722L11.325 2.79086ZM2.58842 14.7305C3.56201 10.832 5.12707 7.55302 6.82611 5.39866C7.67657 4.32029 8.52905 3.56368 9.31762 3.13438C10.0972 2.70998 10.7627 2.6292 11.325 2.79086L11.8776 0.868722C10.6823 0.525085 9.47093 0.773754 8.36135 1.37781C7.26077 1.97696 6.21185 2.9478 5.25572 4.16016C3.34159 6.58725 1.67271 10.1428 0.64801 14.2459L2.58842 14.7305ZM4.64117 29.8453C4.07234 29.6817 3.51678 29.2436 3.02636 28.4363C2.5338 27.6255 2.1451 26.4991 1.9101 25.1029C1.44053 22.3132 1.61512 18.6278 2.58842 14.7305L0.64801 14.2459C-0.376984 18.3502 -0.586686 22.3186 -0.062157 25.4349C0.199888 26.9917 0.65283 28.3814 1.31706 29.4747C1.98342 30.5716 2.89978 31.4256 4.08857 31.7674L4.64117 29.8453Z" fill="black" mask="url(#path-3-inside-1_46_102)"/>
<path fill-rule="evenodd" clip-rule="evenodd" d="M12 8C10.8954 8 10 8.89543 10 10V12H8C6.89543 12 6 12.8954 6 14C6 15.1046 6.89543 16 8 16H10V18C10 19.1046 10.8954 20 12 20C13.1046 20 14 19.1046 14 18V16H16C17.1046 16 18 15.1046 18 14C18 12.8954 17.1046 12 16 12H14V10C14 8.89543 13.1046 8 12 8Z" fill="black" fill-opacity="0.75"/>
<circle cx="31" cy="12" r="2" fill="black" fill-opacity="0.75"/>
<circle cx="35" cy="16" r="2" fill="black" fill-opacity="0.75"/>
</svg>
