<svg width="193" height="33" viewBox="0 0 193 33" fill="none" xmlns="http://www.w3.org/2000/svg">
<path d="M108.247 23V6.2H110.935V20.528H118.255V23H108.247ZM126.365 23.36C125.125 23.36 124.017 23.076 123.041 22.508C122.073 21.932 121.313 21.168 120.761 20.216C120.209 19.256 119.933 18.204 119.933 17.06C119.933 16.212 120.089 15.412 120.401 14.66C120.721 13.9 121.169 13.228 121.745 12.644C122.329 12.06 123.013 11.6 123.797 11.264C124.581 10.928 125.441 10.76 126.377 10.76C127.617 10.76 128.721 11.048 129.689 11.624C130.665 12.192 131.429 12.956 131.981 13.916C132.533 14.868 132.809 15.916 132.809 17.06C132.809 17.9 132.649 18.7 132.329 19.46C132.017 20.22 131.573 20.892 130.997 21.476C130.421 22.06 129.741 22.52 128.957 22.856C128.173 23.192 127.309 23.36 126.365 23.36ZM126.365 21.02C127.101 21.02 127.753 20.86 128.321 20.54C128.897 20.212 129.349 19.752 129.677 19.16C130.005 18.568 130.169 17.868 130.169 17.06C130.169 16.252 130.005 15.552 129.677 14.96C129.349 14.36 128.897 13.9 128.321 13.58C127.753 13.26 127.101 13.1 126.365 13.1C125.629 13.1 124.973 13.26 124.397 13.58C123.829 13.9 123.381 14.36 123.053 14.96C122.733 15.552 122.573 16.252 122.573 17.06C122.573 17.868 122.737 18.568 123.065 19.16C123.393 19.752 123.841 20.212 124.409 20.54C124.985 20.86 125.637 21.02 126.365 21.02ZM140.045 23.36C138.981 23.36 138.101 23.148 137.405 22.724C136.717 22.292 136.201 21.724 135.857 21.02C135.513 20.316 135.341 19.548 135.341 18.716V11.12H137.981V18.224C137.981 19.04 138.221 19.696 138.701 20.192C139.189 20.68 139.861 20.924 140.717 20.924C141.277 20.924 141.777 20.8 142.217 20.552C142.657 20.296 143.005 19.94 143.261 19.484C143.525 19.028 143.657 18.5 143.657 17.9V11.12H146.297V23H143.921V21.596C143.457 22.156 142.905 22.592 142.265 22.904C141.633 23.208 140.893 23.36 140.045 23.36ZM149.969 23V11.12H152.609V12.632C153.105 11.968 153.681 11.492 154.337 11.204C154.993 10.908 155.673 10.76 156.377 10.76C157.465 10.76 158.365 10.976 159.077 11.408C159.789 11.84 160.317 12.396 160.661 13.076C161.013 13.756 161.189 14.456 161.189 15.176V23H158.549V15.992C158.549 15.144 158.293 14.464 157.781 13.952C157.277 13.44 156.573 13.184 155.669 13.184C155.077 13.184 154.549 13.316 154.085 13.58C153.629 13.844 153.269 14.212 153.005 14.684C152.741 15.148 152.609 15.692 152.609 16.316V23H149.969ZM169.414 28.4C168.526 28.4 167.726 28.32 167.014 28.16C166.302 28.008 165.694 27.784 165.19 27.488C164.694 27.192 164.314 26.836 164.05 26.42C163.786 26.004 163.654 25.54 163.654 25.028C163.654 24.62 163.762 24.236 163.978 23.876C164.202 23.516 164.53 23.208 164.962 22.952C165.402 22.688 165.938 22.492 166.57 22.364C166.098 22.124 165.746 21.852 165.514 21.548C165.29 21.244 165.178 20.896 165.178 20.504C165.178 20.168 165.274 19.852 165.466 19.556C165.666 19.252 165.946 18.984 166.306 18.752C166.674 18.512 167.106 18.316 167.602 18.164C168.098 18.012 168.646 17.924 169.246 17.9L169.822 19.052C169.326 19.044 168.902 19.084 168.55 19.172C168.206 19.252 167.938 19.368 167.746 19.52C167.562 19.664 167.47 19.84 167.47 20.048C167.47 20.32 167.626 20.52 167.938 20.648C168.25 20.768 168.69 20.852 169.258 20.9L171.298 21.056C172.298 21.136 173.15 21.3 173.854 21.548C174.566 21.796 175.11 22.144 175.486 22.592C175.87 23.04 176.062 23.608 176.062 24.296C176.062 24.88 175.902 25.42 175.582 25.916C175.27 26.42 174.818 26.856 174.226 27.224C173.642 27.592 172.942 27.88 172.126 28.088C171.31 28.296 170.406 28.4 169.414 28.4ZM169.678 26.576C170.87 26.576 171.806 26.396 172.486 26.036C173.174 25.684 173.518 25.224 173.518 24.656C173.518 24.224 173.29 23.888 172.834 23.648C172.378 23.408 171.682 23.256 170.746 23.192L168.562 23.024C168.05 23.064 167.606 23.16 167.23 23.312C166.862 23.464 166.582 23.66 166.39 23.9C166.198 24.14 166.102 24.412 166.102 24.716C166.102 25.084 166.246 25.408 166.534 25.688C166.822 25.968 167.234 26.184 167.77 26.336C168.306 26.496 168.942 26.576 169.678 26.576ZM169.594 19.232C168.602 19.232 167.71 19.044 166.918 18.668C166.134 18.292 165.514 17.784 165.058 17.144C164.602 16.504 164.374 15.788 164.374 14.996C164.374 14.204 164.602 13.488 165.058 12.848C165.522 12.208 166.146 11.7 166.93 11.324C167.722 10.948 168.61 10.76 169.594 10.76C170.578 10.76 171.462 10.948 172.246 11.324C173.03 11.7 173.65 12.208 174.106 12.848C174.57 13.488 174.802 14.204 174.802 14.996C174.802 15.78 174.574 16.492 174.118 17.132C173.662 17.772 173.042 18.284 172.258 18.668C171.474 19.044 170.586 19.232 169.594 19.232ZM169.594 17.252C170.138 17.252 170.622 17.16 171.046 16.976C171.47 16.784 171.802 16.52 172.042 16.184C172.282 15.84 172.402 15.444 172.402 14.996C172.402 14.324 172.138 13.78 171.61 13.364C171.09 12.94 170.418 12.728 169.594 12.728C169.042 12.728 168.554 12.824 168.13 13.016C167.714 13.208 167.386 13.476 167.146 13.82C166.906 14.156 166.786 14.548 166.786 14.996C166.786 15.66 167.046 16.204 167.566 16.628C168.094 17.044 168.77 17.252 169.594 17.252ZM171.442 13.208L170.458 11.372L176.83 11.12L176.806 13.304L171.442 13.208ZM184.526 23.36C183.246 23.36 182.122 23.1 181.154 22.58C180.186 22.052 179.43 21.316 178.886 20.372C178.35 19.428 178.082 18.332 178.082 17.084C178.082 16.172 178.238 15.332 178.55 14.564C178.862 13.788 179.302 13.116 179.87 12.548C180.438 11.98 181.102 11.54 181.862 11.228C182.63 10.916 183.466 10.76 184.37 10.76C185.354 10.76 186.23 10.936 186.998 11.288C187.766 11.632 188.402 12.116 188.906 12.74C189.418 13.364 189.778 14.096 189.986 14.936C190.202 15.768 190.238 16.672 190.094 17.648H180.614C180.598 18.36 180.754 18.984 181.082 19.52C181.41 20.048 181.878 20.46 182.486 20.756C183.102 21.052 183.826 21.2 184.658 21.2C185.33 21.2 185.978 21.1 186.602 20.9C187.234 20.692 187.806 20.388 188.318 19.988L189.338 21.884C188.954 22.196 188.49 22.464 187.946 22.688C187.402 22.904 186.834 23.068 186.242 23.18C185.65 23.3 185.078 23.36 184.526 23.36ZM180.77 15.704H187.502C187.478 14.808 187.19 14.104 186.638 13.592C186.094 13.08 185.318 12.824 184.31 12.824C183.334 12.824 182.522 13.08 181.874 13.592C181.234 14.104 180.866 14.808 180.77 15.704Z" fill="#16A34A"/>
<path d="M59.184 23V6.2H65.268C66.46 6.2 67.512 6.408 68.424 6.824C69.344 7.232 70.064 7.824 70.584 8.6C71.104 9.368 71.364 10.292 71.364 11.372C71.364 12.484 71.124 13.424 70.644 14.192C70.164 14.952 69.464 15.532 68.544 15.932C67.632 16.324 66.52 16.52 65.208 16.52H61.872V23H59.184ZM61.872 14.216H65.244C66.332 14.216 67.176 13.988 67.776 13.532C68.376 13.068 68.676 12.368 68.676 11.432C68.676 10.504 68.368 9.792 67.752 9.296C67.136 8.8 66.308 8.552 65.268 8.552H61.872V14.216ZM74.0469 23V5.72H76.6869V23H74.0469ZM83.6516 23.36C82.8276 23.36 82.1036 23.208 81.4796 22.904C80.8556 22.592 80.3676 22.156 80.0156 21.596C79.6716 21.028 79.4996 20.36 79.4996 19.592C79.4996 18.944 79.6636 18.36 79.9916 17.84C80.3196 17.312 80.8276 16.876 81.5156 16.532C82.2116 16.188 83.1036 15.96 84.1916 15.848C85.2796 15.728 86.5876 15.744 88.1156 15.896L88.1636 17.72C87.0756 17.568 86.1396 17.504 85.3556 17.528C84.5716 17.552 83.9276 17.652 83.4236 17.828C82.9276 17.996 82.5596 18.224 82.3196 18.512C82.0876 18.792 81.9716 19.116 81.9716 19.484C81.9716 20.06 82.1756 20.504 82.5836 20.816C82.9996 21.128 83.5676 21.284 84.2876 21.284C84.9036 21.284 85.4556 21.172 85.9436 20.948C86.4316 20.724 86.8156 20.408 87.0956 20C87.3836 19.592 87.5276 19.112 87.5276 18.56V15.404C87.5276 14.876 87.4156 14.42 87.1916 14.036C86.9676 13.644 86.6276 13.34 86.1716 13.124C85.7156 12.908 85.1476 12.8 84.4676 12.8C83.8436 12.8 83.2276 12.896 82.6196 13.088C82.0116 13.272 81.4316 13.564 80.8796 13.964L80.1356 12.02C80.8796 11.516 81.6556 11.16 82.4636 10.952C83.2716 10.744 84.0476 10.64 84.7916 10.64C85.8956 10.64 86.8396 10.816 87.6236 11.168C88.4156 11.512 89.0236 12.036 89.4476 12.74C89.8716 13.436 90.0836 14.316 90.0836 15.38V23H87.7076V21.596C87.3076 22.164 86.7516 22.6 86.0396 22.904C85.3276 23.208 84.5316 23.36 83.6516 23.36ZM94.3794 28.376C93.9474 28.376 93.5234 28.328 93.1074 28.232C92.6914 28.136 92.2834 27.972 91.8834 27.74L92.4834 25.484C92.7314 25.644 93.0034 25.764 93.2994 25.844C93.5954 25.924 93.8594 25.964 94.0914 25.964C94.6514 25.964 95.0914 25.832 95.4114 25.568C95.7314 25.304 95.9834 24.896 96.1674 24.344L96.5634 23.192L91.8834 11.12H94.7754L98.0634 20.336L101.267 11.12H104.063L98.9274 24.716C98.5594 25.668 98.1474 26.408 97.6914 26.936C97.2354 27.472 96.7314 27.844 96.1794 28.052C95.6274 28.268 95.0274 28.376 94.3794 28.376Z" fill="black"/>
<path d="M6 14C6 8.47715 10.4772 4 16 4H32C37.5228 4 42 8.47715 42 14V17C42 21.4183 38.4183 25 34 25H14C9.58172 25 6 21.4183 6 17V14Z" fill="#22C55E"/>
<ellipse cx="6.6227" cy="14.9332" rx="6.6227" ry="14.9332" transform="matrix(0.961071 0.2763 -0.242294 0.970203 7.23645 0)" fill="#22C55E"/>
<ellipse cx="6.6227" cy="14.9332" rx="6.6227" ry="14.9332" transform="matrix(-0.961071 0.2763 0.242294 0.970203 40.7297 0)" fill="#22C55E"/>
<path fill-rule="evenodd" clip-rule="evenodd" d="M14 8C12.8954 8 12 8.89543 12 10V12H10C8.89543 12 8 12.8954 8 14C8 15.1046 8.89543 16 10 16H12V18C12 19.1046 12.8954 20 14 20C15.1046 20 16 19.1046 16 18V16H18C19.1046 16 20 15.1046 20 14C20 12.8954 19.1046 12 18 12H16V10C16 8.89543 15.1046 8 14 8Z" fill="black" fill-opacity="0.75"/>
<circle cx="33" cy="12" r="2" fill="black" fill-opacity="0.75"/>
<circle cx="37" cy="16" r="2" fill="black" fill-opacity="0.75"/>
</svg>
