<svg xmlns="http://www.w3.org/2000/svg" version="1.1" xmlns:xlink="http://www.w3.org/1999/xlink" xmlns:svgjs="http://svgjs.dev/svgjs" width="44" height="30"><svg width="44" height="30" viewBox="0 0 44 30" fill="none" xmlns="http://www.w3.org/2000/svg">
<mask id="SvgjsMask1125" fill="white">
<path fill-rule="evenodd" clip-rule="evenodd" d="M4.36487 29.8063C6.75009 30.4921 9.5747 28.1032 11.7685 23.9967C11.8454 23.9988 11.9226 23.9999 12 23.9999H32C32.0662 23.9999 32.1323 23.9991 32.1981 23.9975C34.3919 28.1035 37.2163 30.492 39.6013 29.8063C43.1165 28.7957 44.3462 21.4899 42.348 13.4882C40.3497 5.48656 35.8801 -0.180807 32.3648 0.829793C31.3911 1.10975 30.5926 1.87281 29.9897 2.99994H14L13.9765 2.99997C13.3735 1.87283 12.5751 1.10975 11.6013 0.829793C8.0861 -0.180807 3.6165 5.48656 1.61821 13.4882C-0.380079 21.4899 0.849641 28.7957 4.36487 29.8063Z"></path>
</mask>
<path fill-rule="evenodd" clip-rule="evenodd" d="M4.36487 29.8063C6.75009 30.4921 9.5747 28.1032 11.7685 23.9967C11.8454 23.9988 11.9226 23.9999 12 23.9999H32C32.0662 23.9999 32.1323 23.9991 32.1981 23.9975C34.3919 28.1035 37.2163 30.492 39.6013 29.8063C43.1165 28.7957 44.3462 21.4899 42.348 13.4882C40.3497 5.48656 35.8801 -0.180807 32.3648 0.829793C31.3911 1.10975 30.5926 1.87281 29.9897 2.99994H14L13.9765 2.99997C13.3735 1.87283 12.5751 1.10975 11.6013 0.829793C8.0861 -0.180807 3.6165 5.48656 1.61821 13.4882C-0.380079 21.4899 0.849641 28.7957 4.36487 29.8063Z" fill="#22C55E"></path>
<path d="M11.7685 23.9967L11.7969 22.9971L11.1782 22.9795L10.8865 23.5255L11.7685 23.9967ZM4.36487 29.8063L4.08857 30.7674L4.08857 30.7674L4.36487 29.8063ZM32.1981 23.9975L33.0801 23.5263L32.7898 22.9829L32.1738 22.9978L32.1981 23.9975ZM39.6013 29.8063L39.8776 30.7674L39.8776 30.7674L39.6013 29.8063ZM42.348 13.4882L43.3182 13.2459L43.3182 13.2459L42.348 13.4882ZM32.3648 0.829793L32.0885 -0.131278L32.0885 -0.131278L32.3648 0.829793ZM29.9897 2.99994V3.99994H30.5888L30.8714 3.47165L29.9897 2.99994ZM14 2.99994L14 1.99994L13.9987 1.99994L14 2.99994ZM13.9765 2.99997L13.0948 3.47167L13.3778 4.00074L13.9778 3.99997L13.9765 2.99997ZM11.6013 0.829793L11.8776 -0.131278L11.8776 -0.131278L11.6013 0.829793ZM1.61821 13.4882L2.58842 13.7305L1.61821 13.4882ZM10.8865 23.5255C9.82872 25.5055 8.65173 27.0056 7.51303 27.9183C6.36584 28.8379 5.39675 29.0625 4.64117 28.8453L4.08857 30.7674C5.71821 31.2359 7.35403 30.609 8.76391 29.4789C10.1823 28.342 11.5145 26.5944 12.6505 24.4679L10.8865 23.5255ZM12 22.9999C11.932 22.9999 11.8643 22.999 11.7969 22.9971L11.7401 24.9963C11.8265 24.9987 11.9131 24.9999 12 24.9999V22.9999ZM32 22.9999H12V24.9999H32V22.9999ZM32.1738 22.9978C32.1161 22.9992 32.0581 22.9999 32 22.9999V24.9999C32.0743 24.9999 32.1485 24.999 32.2224 24.9972L32.1738 22.9978ZM31.3161 24.4688C32.4521 26.595 33.7843 28.3424 35.2026 29.4791C36.6124 30.6091 38.2481 31.2359 39.8776 30.7674L39.325 28.8453C38.5695 29.0625 37.6005 28.8379 36.4534 27.9185C35.3148 27.0059 34.1379 25.506 33.0801 23.5263L31.3161 24.4688ZM39.8776 30.7674C41.0664 30.4256 41.9828 29.5716 42.6491 28.4747C43.3133 27.3814 43.7663 25.9917 44.0283 24.4349C44.5529 21.3186 44.3432 17.3502 43.3182 13.2459L41.3778 13.7305C42.3511 17.6278 42.5256 21.3132 42.0561 24.1029C41.8211 25.4991 41.4324 26.6255 40.9398 27.4363C40.4494 28.2436 39.8938 28.6817 39.325 28.8453L39.8776 30.7674ZM43.3182 13.2459C42.2935 9.14278 40.6246 5.58725 38.7104 3.16016C37.7543 1.9478 36.7054 0.976959 35.6048 0.377807C34.4952 -0.226246 33.2838 -0.474915 32.0885 -0.131278L32.6411 1.79086C33.2035 1.6292 33.869 1.70998 34.6485 2.13438C35.4371 2.56368 36.2896 3.32029 37.1401 4.39866C38.8391 6.55302 40.4042 9.83199 41.3778 13.7305L43.3182 13.2459ZM32.0885 -0.131278C30.7702 0.24774 29.7895 1.2541 29.1079 2.52823L30.8714 3.47165C31.3958 2.49153 32.0119 1.97176 32.6411 1.79086L32.0885 -0.131278ZM14 3.99994H29.9897V1.99994H14V3.99994ZM13.9778 3.99997L14.0013 3.99994L13.9987 1.99994L13.9752 1.99997L13.9778 3.99997ZM11.325 1.79086C11.9543 1.97176 12.5704 2.49154 13.0948 3.47167L14.8583 2.52827C14.1766 1.25411 13.196 0.247744 11.8776 -0.131278L11.325 1.79086ZM2.58842 13.7305C3.56201 9.83199 5.12707 6.55302 6.82611 4.39866C7.67657 3.32029 8.52905 2.56368 9.31762 2.13438C10.0972 1.70998 10.7627 1.6292 11.325 1.79086L11.8776 -0.131278C10.6823 -0.474915 9.47093 -0.226246 8.36135 0.377807C7.26077 0.976959 6.21185 1.9478 5.25572 3.16016C3.34159 5.58725 1.67271 9.14278 0.64801 13.2459L2.58842 13.7305ZM4.64117 28.8453C4.07234 28.6817 3.51678 28.2436 3.02636 27.4363C2.5338 26.6255 2.1451 25.4991 1.9101 24.1029C1.44053 21.3132 1.61512 17.6278 2.58842 13.7305L0.64801 13.2459C-0.376984 17.3502 -0.586686 21.3186 -0.062157 24.4349C0.199888 25.9917 0.65283 27.3814 1.31706 28.4747C1.98342 29.5716 2.89978 30.4256 4.08857 30.7674L4.64117 28.8453Z" fill="black" mask="url(#path-1-inside-1_46_101)"></path>
<path fill-rule="evenodd" clip-rule="evenodd" d="M12 7C10.8954 7 10 7.89543 10 9V11H8C6.89543 11 6 11.8954 6 13C6 14.1046 6.89543 15 8 15H10V17C10 18.1046 10.8954 19 12 19C13.1046 19 14 18.1046 14 17V15H16C17.1046 15 18 14.1046 18 13C18 11.8954 17.1046 11 16 11H14V9C14 7.89543 13.1046 7 12 7Z" fill="black" fill-opacity="0.75"></path>
<circle cx="31" cy="11" r="2" fill="black" fill-opacity="0.75"></circle>
<circle cx="35" cy="15" r="2" fill="black" fill-opacity="0.75"></circle>
</svg><style>@media (prefers-color-scheme: light) { :root { filter: none; } }
@media (prefers-color-scheme: dark) { :root { filter: none; } }
</style></svg>